<svg width="41" height="41" viewBox="0 0 41 41" fill="none" xmlns="http://www.w3.org/2000/svg">
<path d="M28.8888 15.784C28.5766 15.4736 28.1541 15.2993 27.7138 15.2993C27.2735 15.2993 26.8511 15.4736 26.5388 15.784L20.5555 21.684L14.6555 15.784C14.3432 15.4736 13.9208 15.2993 13.4805 15.2993C13.0402 15.2993 12.6178 15.4736 12.3055 15.784C12.1493 15.9389 12.0253 16.1232 11.9407 16.3263C11.8561 16.5294 11.8125 16.7473 11.8125 16.9673C11.8125 17.1873 11.8561 17.4052 11.9407 17.6083C12.0253 17.8114 12.1493 17.9957 12.3055 18.1506L19.3722 25.2173C19.5271 25.3735 19.7114 25.4975 19.9145 25.5821C20.1176 25.6667 20.3355 25.7103 20.5555 25.7103C20.7755 25.7103 20.9934 25.6667 21.1965 25.5821C21.3996 25.4975 21.5839 25.3735 21.7388 25.2173L28.8888 18.1506C29.045 17.9957 29.169 17.8114 29.2536 17.6083C29.3383 17.4052 29.3818 17.1873 29.3818 16.9673C29.3818 16.7473 29.3383 16.5294 29.2536 16.3263C29.169 16.1232 29.045 15.9389 28.8888 15.784Z" fill="#333333"/>
</svg>
